<svg xmlns="http://www.w3.org/2000/svg" width="20.678" height="20.678" viewBox="0 0 20.678 20.678">
  <path id="call_FILL0_wght400_GRAD0_opsz48" d="M25.386,26.678a15.492,15.492,0,0,1-6.965-1.723,23.646,23.646,0,0,1-6.218-4.48,23.646,23.646,0,0,1-4.48-6.218A15.492,15.492,0,0,1,6,7.292,1.275,1.275,0,0,1,7.292,6h4.021a1.016,1.016,0,0,1,.7.273,1.269,1.269,0,0,1,.388.732l.775,3.619a2.066,2.066,0,0,1-.014.732,1.107,1.107,0,0,1-.3.56l-2.872,2.9a23.844,23.844,0,0,0,3.6,4.653,19.92,19.92,0,0,0,4.523,3.36l2.728-2.815a1.588,1.588,0,0,1,.661-.445,1.328,1.328,0,0,1,.747-.043l3.418.747a1.255,1.255,0,0,1,1.005,1.235v3.877a1.275,1.275,0,0,1-1.292,1.292ZM9.13,13.237l2.326-2.355L10.8,7.723H7.723a9.885,9.885,0,0,0,.345,2.456A23.149,23.149,0,0,0,9.13,13.237Zm10.6,10.425a14.334,14.334,0,0,0,2.556.89,13.478,13.478,0,0,0,2.671.4V21.882L22,21.279ZM9.13,13.237ZM19.728,23.663Z" transform="translate(-6 -6)" fill="#8b8b8b"/>
</svg>
