<svg xmlns="http://www.w3.org/2000/svg" width="32.896" height="33.525" viewBox="0 0 32.896 33.525">
  <path id="shopping_cart_FILL0_wght400_GRAD0_opsz48" d="M12.452,37.525a3.021,3.021,0,1,1,2.14-5.161,3.021,3.021,0,0,1-2.14,5.161Zm16.784,0a3.008,3.008,0,1,1,2.14-.881A2.913,2.913,0,0,1,29.236,37.525ZM10.271,9.832,14.886,19.4H26.97l5.245-9.567ZM9.012,7.315H33.726a1.6,1.6,0,0,1,1.469.881,1.668,1.668,0,0,1,0,1.762l-5.665,10.2a3.755,3.755,0,0,1-1.2,1.28,2.881,2.881,0,0,1-1.615.483H14l-2.35,4.364h20.6V28.8H12.033a2.816,2.816,0,0,1-2.539-1.175,2.414,2.414,0,0,1,.021-2.643L12.2,20.028,5.823,6.518H2.55V4H7.459ZM14.886,19.4h0Z" transform="translate(-2.55 -4)"/>
</svg>
