<svg xmlns="http://www.w3.org/2000/svg" width="24.007" height="24.007" viewBox="0 0 24.007 24.007">
  <path id="Path_40" data-name="Path 40" d="M12,2.134a36.806,36.806,0,0,1,4.8.133,6.186,6.186,0,0,1,2.267.4A4.684,4.684,0,0,1,21.34,4.935a6.186,6.186,0,0,1,.4,2.267c0,1.2.133,1.6.133,4.8a36.805,36.805,0,0,1-.133,4.8,6.186,6.186,0,0,1-.4,2.267,4.684,4.684,0,0,1-2.267,2.267,6.186,6.186,0,0,1-2.267.4c-1.2,0-1.6.133-4.8.133a36.805,36.805,0,0,1-4.8-.133,6.186,6.186,0,0,1-2.267-.4,4.684,4.684,0,0,1-2.267-2.267,6.186,6.186,0,0,1-.4-2.267c0-1.2-.133-1.6-.133-4.8a36.806,36.806,0,0,1,.133-4.8,6.186,6.186,0,0,1,.4-2.267A4.79,4.79,0,0,1,3.6,3.6a2.255,2.255,0,0,1,1.334-.934,6.186,6.186,0,0,1,2.267-.4A36.806,36.806,0,0,1,12,2.134M12,0A39.408,39.408,0,0,0,7.069.133,8.234,8.234,0,0,0,4.135.667,5.221,5.221,0,0,0,2,2,5.221,5.221,0,0,0,.667,4.135,6.077,6.077,0,0,0,.133,7.069,39.408,39.408,0,0,0,0,12a39.408,39.408,0,0,0,.133,4.935,8.234,8.234,0,0,0,.533,2.934A5.221,5.221,0,0,0,2,22.007a5.221,5.221,0,0,0,2.134,1.334,8.234,8.234,0,0,0,2.934.533A39.409,39.409,0,0,0,12,24.007a39.409,39.409,0,0,0,4.935-.133,8.234,8.234,0,0,0,2.934-.533,5.6,5.6,0,0,0,3.468-3.468,8.234,8.234,0,0,0,.533-2.934c0-1.334.133-1.734.133-4.935a39.409,39.409,0,0,0-.133-4.935,8.234,8.234,0,0,0-.533-2.934A5.221,5.221,0,0,0,22.007,2,5.221,5.221,0,0,0,19.873.667,8.234,8.234,0,0,0,16.939.133,39.408,39.408,0,0,0,12,0m0,5.868A6.036,6.036,0,0,0,5.868,12,6.135,6.135,0,1,0,12,5.868M12,16a3.93,3.93,0,0,1-4-4,3.93,3.93,0,0,1,4-4,3.93,3.93,0,0,1,4,4,3.93,3.93,0,0,1-4,4m6.4-11.87A1.467,1.467,0,1,0,19.873,5.6a1.48,1.48,0,0,0-1.467-1.467" fill-rule="evenodd"/>
</svg>
