<svg xmlns="http://www.w3.org/2000/svg" width="15.2" height="19" viewBox="0 0 15.2 19">
  <path id="shopping_bag_FILL0_wght400_GRAD0_opsz48" d="M9.425,23A1.461,1.461,0,0,1,8,21.575V9.225A1.461,1.461,0,0,1,9.425,7.8h2.612V7.562A3.528,3.528,0,0,1,15.6,4a3.528,3.528,0,0,1,3.562,3.562V7.8h2.612A1.461,1.461,0,0,1,23.2,9.225v12.35A1.461,1.461,0,0,1,21.775,23Zm0-1.425h12.35V9.225H19.162v2.138a.713.713,0,1,1-1.425,0V9.225H13.462v2.138a.713.713,0,1,1-1.425,0V9.225H9.425ZM13.462,7.8h4.275V7.562a2.138,2.138,0,1,0-4.275,0ZM9.425,21.575v0Z" transform="translate(-8 -4)" fill="#fff"/>
</svg>
