<svg xmlns="http://www.w3.org/2000/svg" width="24.007" height="19.473" viewBox="0 0 24.007 19.473">
  <path id="Path_39" data-name="Path 39" d="M45.6,21.473a13.88,13.88,0,0,0,14-14V6.8a10.841,10.841,0,0,0,2.4-2.534,11.072,11.072,0,0,1-2.8.8A5.189,5.189,0,0,0,61.341,2.4a12.234,12.234,0,0,1-3.068,1.2,4.763,4.763,0,0,0-3.6-1.6,5.011,5.011,0,0,0-4.935,4.935A2.6,2.6,0,0,0,49.87,8,13.789,13.789,0,0,1,39.734,2.8a5.108,5.108,0,0,0-.667,2.534A5.3,5.3,0,0,0,41.2,9.469,4.5,4.5,0,0,1,38.934,8.8h0a4.874,4.874,0,0,0,4,4.8,4.112,4.112,0,0,1-1.334.133,2.27,2.27,0,0,1-.934-.133,5.053,5.053,0,0,0,4.668,3.468A10.07,10.07,0,0,1,39.2,19.205a3.693,3.693,0,0,1-1.2-.133,12.589,12.589,0,0,0,7.6,2.4" transform="translate(-38 -2)" fill-rule="evenodd"/>
</svg>
